<svg width="1918" height="1232" viewBox="0 0 1918 1232" fill="none" xmlns="http://www.w3.org/2000/svg">
<g filter="url(#filter0_i_105_12)">
<rect x="-0.00643921" width="1915.49" height="1231.74" fill="url(#paint0_linear_105_12)"/>
</g>
<path d="M70.4935 413.243C71.3564 411.835 73.4073 411.835 74.2702 413.243L82.4929 426.655C83.3945 428.124 82.3336 430.01 80.6056 430.01H64.1581C62.4301 430.01 61.3703 428.124 62.2708 426.655L70.4935 413.243V413.243Z" stroke="#D0D0D0" stroke-width="2"/>
<path d="M375.491 412.368C381.601 412.368 386.554 407.432 386.554 401.343C386.554 395.253 381.601 390.317 375.491 390.317C369.382 390.317 364.429 395.253 364.429 401.343C364.429 407.432 369.382 412.368 375.491 412.368Z" stroke="#D0D0D0" stroke-width="2"/>
<path d="M190.749 459.78L173.05 477.421M190.749 477.421L173.05 459.78L190.749 477.421Z" stroke="#D0D0D0" stroke-width="2" stroke-linecap="round"/>
<path d="M169.731 227.133H154.243C153.021 227.133 152.031 228.121 152.031 229.339V244.775C152.031 245.993 153.021 246.98 154.243 246.98H169.731C170.953 246.98 171.943 245.993 171.943 244.775V229.339C171.943 228.121 170.953 227.133 169.731 227.133Z" stroke="#D0D0D0" stroke-width="2"/>
<path d="M185.366 621.498C184.124 620.406 184.48 618.393 186.021 617.791L200.701 612.048C202.31 611.419 203.989 612.787 203.689 614.484L200.832 630.628C200.532 632.324 198.485 633.037 197.19 631.898L185.366 621.498V621.498Z" stroke="#D0D0D0" stroke-width="2"/>
<path d="M237.464 321.973C238.525 315.976 234.507 310.257 228.49 309.2C222.474 308.142 216.736 312.147 215.675 318.143C214.614 324.14 218.632 329.859 224.648 330.916C230.665 331.974 236.403 327.97 237.464 321.973Z" stroke="#D0D0D0" stroke-width="2"/>
<path d="M252.229 511.54L266.586 531.977M269.66 514.604L249.155 528.914L269.66 514.604Z" stroke="#D0D0D0" stroke-width="2" stroke-linecap="round"/>
<path d="M18.7084 491.773L16.019 506.974C15.8069 508.174 16.6104 509.318 17.8137 509.529L33.0658 512.21C34.2691 512.421 35.4166 511.62 35.6288 510.421L38.3182 495.219C38.5304 494.02 37.7269 492.876 36.5235 492.664L21.2714 489.984C20.0681 489.773 18.9206 490.573 18.7084 491.773Z" stroke="#D0D0D0" stroke-width="2"/>
<path d="M320.504 287.547C321.367 286.139 323.418 286.139 324.281 287.547L332.504 300.959C333.405 302.429 332.344 304.314 330.616 304.314H314.169C312.441 304.314 311.381 302.429 312.281 300.959L320.504 287.547V287.547Z" stroke="#D0D0D0" stroke-width="2"/>
<path d="M625.502 286.673C631.612 286.673 636.564 281.737 636.564 275.647C636.564 269.558 631.612 264.621 625.502 264.621C619.393 264.621 614.44 269.558 614.44 275.647C614.44 281.737 619.393 286.673 625.502 286.673Z" stroke="#D0D0D0" stroke-width="2"/>
<path d="M440.76 334.084L423.06 351.726M440.76 351.726L423.06 334.084L440.76 351.726Z" stroke="#D0D0D0" stroke-width="2" stroke-linecap="round"/>
<path d="M419.741 101.438H404.254C403.032 101.438 402.042 102.425 402.042 103.643V119.079C402.042 120.297 403.032 121.285 404.254 121.285H419.741C420.963 121.285 421.954 120.297 421.954 119.079V103.643C421.954 102.425 420.963 101.438 419.741 101.438Z" stroke="#D0D0D0" stroke-width="2"/>
<path d="M224.084 1068.05C222.842 1066.96 223.198 1064.94 224.739 1064.34L239.419 1058.6C241.028 1057.97 242.707 1059.34 242.407 1061.03L239.55 1077.18C239.25 1078.87 237.203 1079.59 235.908 1078.45L224.084 1068.05V1068.05Z" stroke="#D0D0D0" stroke-width="2"/>
<path d="M276.182 768.522C277.243 762.525 273.225 756.806 267.208 755.749C261.192 754.691 255.454 758.696 254.393 764.692C253.332 770.689 257.35 776.408 263.366 777.465C269.383 778.523 275.121 774.519 276.182 768.522Z" stroke="#D0D0D0" stroke-width="2"/>
<path d="M290.947 958.09L305.304 978.526M308.378 961.153L287.873 975.463L308.378 961.153Z" stroke="#D0D0D0" stroke-width="2" stroke-linecap="round"/>
<path d="M57.4264 938.322L54.737 953.524C54.5249 954.723 55.3284 955.867 56.5317 956.078L71.7838 958.759C72.9871 958.97 74.1347 958.169 74.3468 956.97L77.0362 941.768C77.2484 940.569 76.4449 939.425 75.2415 939.214L59.9894 936.533C58.7861 936.322 57.6386 937.123 57.4264 938.322Z" stroke="#D0D0D0" stroke-width="2"/>
<path d="M1600.42 357.011C1601.28 355.603 1603.33 355.603 1604.2 357.011L1612.42 370.422C1613.32 371.892 1612.26 373.778 1610.53 373.778H1594.09C1592.36 373.778 1591.3 371.892 1592.2 370.422L1600.42 357.011V357.011Z" stroke="#D0D0D0" stroke-width="2"/>
<path d="M1905.42 356.136C1911.53 356.136 1916.48 351.2 1916.48 345.11C1916.48 339.021 1911.53 334.085 1905.42 334.085C1899.31 334.085 1894.36 339.021 1894.36 345.11C1894.36 351.2 1899.31 356.136 1905.42 356.136Z" stroke="#D0D0D0" stroke-width="2"/>
<path d="M1720.68 403.548L1702.98 421.189M1720.68 421.189L1702.98 403.548L1720.68 421.189Z" stroke="#D0D0D0" stroke-width="2" stroke-linecap="round"/>
<path d="M1699.66 170.901H1684.17C1682.95 170.901 1681.96 171.889 1681.96 173.106V188.543C1681.96 189.761 1682.95 190.748 1684.17 190.748H1699.66C1700.88 190.748 1701.87 189.761 1701.87 188.543V173.106C1701.87 171.889 1700.88 170.901 1699.66 170.901Z" stroke="#D0D0D0" stroke-width="2"/>
<path d="M560.38 892.735C559.139 891.644 559.495 889.631 561.036 889.028L575.716 883.286C577.325 882.656 579.004 884.025 578.703 885.721L575.847 901.865C575.547 903.562 573.5 904.274 572.204 903.135L560.38 892.735V892.735Z" stroke="#D0D0D0" stroke-width="2"/>
<path d="M612.479 593.21C613.539 587.213 609.522 581.495 603.505 580.437C597.488 579.38 591.751 583.384 590.69 589.381C589.629 595.378 593.647 601.096 599.663 602.154C605.68 603.211 611.418 599.207 612.479 593.21Z" stroke="#D0D0D0" stroke-width="2"/>
<path d="M627.244 782.778L641.601 803.215M644.675 785.842L624.17 800.152L644.675 785.842Z" stroke="#D0D0D0" stroke-width="2" stroke-linecap="round"/>
<path d="M393.723 763.01L391.034 778.212C390.822 779.411 391.625 780.555 392.828 780.767L408.081 783.447C409.284 783.658 410.431 782.858 410.644 781.658L413.333 766.457C413.545 765.257 412.742 764.114 411.538 763.902L396.286 761.222C395.083 761.01 393.935 761.811 393.723 763.01Z" stroke="#D0D0D0" stroke-width="2"/>
<path d="M774.991 827.682C773.749 826.591 774.106 824.578 775.647 823.975L790.326 818.233C791.935 817.604 793.614 818.972 793.314 820.668L790.458 836.813C790.158 838.509 788.111 839.222 786.815 838.082L774.991 827.682V827.682Z" stroke="#D0D0D0" stroke-width="2"/>
<path d="M827.089 528.157C828.15 522.16 824.133 516.442 818.116 515.384C812.099 514.327 806.361 518.331 805.301 524.328C804.24 530.325 808.257 536.044 814.274 537.101C820.291 538.159 826.028 534.154 827.089 528.157Z" stroke="#D0D0D0" stroke-width="2"/>
<path d="M841.854 717.725L856.212 738.162M859.285 720.789L838.781 735.099L859.285 720.789Z" stroke="#D0D0D0" stroke-width="2" stroke-linecap="round"/>
<path d="M608.334 697.957L605.645 713.159C605.432 714.359 606.236 715.502 607.439 715.714L622.691 718.394C623.895 718.606 625.042 717.805 625.254 716.606L627.944 701.404C628.156 700.204 627.352 699.061 626.149 698.849L610.897 696.169C609.694 695.957 608.546 696.758 608.334 697.957Z" stroke="#D0D0D0" stroke-width="2"/>
<path d="M1162.17 1006.3C1160.93 1005.21 1161.29 1003.2 1162.83 1002.59L1177.51 996.853C1179.12 996.223 1180.8 997.592 1180.5 999.288L1177.64 1015.43C1177.34 1017.13 1175.29 1017.84 1174 1016.7L1162.17 1006.3V1006.3Z" stroke="#D0D0D0" stroke-width="2"/>
<path d="M1214.27 706.777C1215.33 700.78 1211.32 695.061 1205.3 694.004C1199.28 692.947 1193.55 696.951 1192.48 702.948C1191.42 708.945 1195.44 714.663 1201.46 715.721C1207.47 716.778 1213.21 712.774 1214.27 706.777Z" stroke="#D0D0D0" stroke-width="2"/>
<path d="M1229.04 896.345L1243.4 916.782M1246.47 899.408L1225.96 913.718L1246.47 899.408Z" stroke="#D0D0D0" stroke-width="2" stroke-linecap="round"/>
<path d="M995.518 876.577L992.829 891.779C992.616 892.978 993.42 894.122 994.623 894.334L1009.88 897.014C1011.08 897.226 1012.23 896.425 1012.44 895.225L1015.13 880.024C1015.34 878.824 1014.54 877.68 1013.33 877.469L998.081 874.788C996.878 874.577 995.73 875.378 995.518 876.577Z" stroke="#D0D0D0" stroke-width="2"/>
<path d="M965.439 472.782C966.302 471.374 968.353 471.374 969.216 472.782L977.439 486.194C978.34 487.664 977.279 489.549 975.551 489.549H959.104C957.376 489.549 956.316 487.664 957.217 486.194L965.439 472.782V472.782Z" stroke="#D0D0D0" stroke-width="2"/>
<path d="M1270.44 471.908C1276.55 471.908 1281.5 466.972 1281.5 460.882C1281.5 454.793 1276.55 449.856 1270.44 449.856C1264.33 449.856 1259.38 454.793 1259.38 460.882C1259.38 466.972 1264.33 471.908 1270.44 471.908Z" stroke="#D0D0D0" stroke-width="2"/>
<path d="M1085.7 519.319L1068 536.961M1085.7 536.961L1068 519.319L1085.7 536.961Z" stroke="#D0D0D0" stroke-width="2" stroke-linecap="round"/>
<path d="M1064.68 286.673H1049.19C1047.97 286.673 1046.98 287.66 1046.98 288.878V304.314C1046.98 305.532 1047.97 306.52 1049.19 306.52H1064.68C1065.9 306.52 1066.89 305.532 1066.89 304.314V288.878C1066.89 287.66 1065.9 286.673 1064.68 286.673Z" stroke="#D0D0D0" stroke-width="2"/>
<path d="M1080.31 681.038C1079.07 679.946 1079.43 677.933 1080.97 677.331L1095.65 671.589C1097.26 670.959 1098.94 672.328 1098.64 674.024L1095.78 690.168C1095.48 691.864 1093.43 692.577 1092.14 691.438L1080.31 681.038V681.038Z" stroke="#D0D0D0" stroke-width="2"/>
<path d="M1132.41 381.513C1133.47 375.516 1129.45 369.797 1123.44 368.74C1117.42 367.682 1111.68 371.687 1110.62 377.684C1109.56 383.681 1113.58 389.399 1119.6 390.457C1125.61 391.514 1131.35 387.51 1132.41 381.513Z" stroke="#D0D0D0" stroke-width="2"/>
<path d="M1147.18 571.081L1161.53 591.518M1164.61 574.144L1144.1 588.454L1164.61 574.144Z" stroke="#D0D0D0" stroke-width="2" stroke-linecap="round"/>
<path d="M913.656 551.313L910.966 566.515C910.754 567.714 911.558 568.858 912.761 569.069L928.013 571.75C929.216 571.961 930.364 571.161 930.576 569.961L933.265 554.759C933.478 553.56 932.674 552.416 931.471 552.205L916.219 549.524C915.015 549.313 913.868 550.114 913.656 551.313Z" stroke="#D0D0D0" stroke-width="2"/>
<path d="M1215.45 347.087C1216.31 345.679 1218.36 345.679 1219.23 347.087L1227.45 360.499C1228.35 361.969 1227.29 363.854 1225.56 363.854H1209.11C1207.39 363.854 1206.33 361.969 1207.23 360.499L1215.45 347.087V347.087Z" stroke="#D0D0D0" stroke-width="2"/>
<path d="M1520.45 346.213C1526.56 346.213 1531.51 341.277 1531.51 335.187C1531.51 329.098 1526.56 324.161 1520.45 324.161C1514.34 324.161 1509.38 329.098 1509.38 335.187C1509.38 341.277 1514.34 346.213 1520.45 346.213Z" stroke="#D0D0D0" stroke-width="2"/>
<path d="M1335.71 393.624L1318.01 411.266M1335.71 411.266L1318.01 393.624L1335.71 411.266Z" stroke="#D0D0D0" stroke-width="2" stroke-linecap="round"/>
<path d="M1314.69 160.978H1299.2C1297.98 160.978 1296.99 161.965 1296.99 163.183V178.619C1296.99 179.837 1297.98 180.825 1299.2 180.825H1314.69C1315.91 180.825 1316.9 179.837 1316.9 178.619V163.183C1316.9 161.965 1315.91 160.978 1314.69 160.978Z" stroke="#D0D0D0" stroke-width="2"/>
<path d="M946.458 342.543C945.217 341.451 945.573 339.438 947.114 338.836L961.794 333.093C963.402 332.464 965.081 333.832 964.781 335.529L961.925 351.673C961.625 353.369 959.578 354.082 958.282 352.943L946.458 342.543V342.543Z" stroke="#D0D0D0" stroke-width="2"/>
<path d="M998.556 43.0176C999.617 37.0207 995.599 31.302 989.583 30.2446C983.566 29.1872 977.828 33.1915 976.767 39.1884C975.706 45.1853 979.724 50.904 985.741 51.9614C991.758 53.0188 997.495 49.0145 998.556 43.0176Z" stroke="#D0D0D0" stroke-width="2"/>
<path d="M1013.32 232.586L1027.68 253.022M1030.75 235.649L1010.25 249.959L1030.75 235.649Z" stroke="#D0D0D0" stroke-width="2" stroke-linecap="round"/>
<path d="M779.801 212.818L777.111 228.02C776.899 229.219 777.703 230.363 778.906 230.574L794.158 233.255C795.362 233.466 796.509 232.665 796.721 231.466L799.411 216.264C799.623 215.065 798.819 213.921 797.616 213.71L782.364 211.029C781.16 210.818 780.013 211.618 779.801 212.818Z" stroke="#D0D0D0" stroke-width="2"/>
<path d="M1455.33 952.275C1454.09 951.184 1454.44 949.171 1455.98 948.568L1470.66 942.826C1472.27 942.196 1473.95 943.565 1473.65 945.261L1470.8 961.405C1470.5 963.101 1468.45 963.814 1467.15 962.675L1455.33 952.275V952.275Z" stroke="#D0D0D0" stroke-width="2"/>
<path d="M1507.43 652.75C1508.49 646.753 1504.47 641.034 1498.45 639.977C1492.44 638.92 1486.7 642.924 1485.64 648.921C1484.58 654.918 1488.59 660.636 1494.61 661.694C1500.63 662.751 1506.37 658.747 1507.43 652.75Z" stroke="#D0D0D0" stroke-width="2"/>
<path d="M1522.19 842.318L1536.55 862.755M1539.62 845.382L1519.12 859.692L1539.62 845.382Z" stroke="#D0D0D0" stroke-width="2" stroke-linecap="round"/>
<path d="M1288.67 822.55L1285.98 837.752C1285.77 838.951 1286.57 840.095 1287.78 840.307L1303.03 842.987C1304.23 843.199 1305.38 842.398 1305.59 841.198L1308.28 825.997C1308.49 824.797 1307.69 823.654 1306.49 823.442L1291.23 820.762C1290.03 820.55 1288.88 821.351 1288.67 822.55Z" stroke="#D0D0D0" stroke-width="2"/>
<path d="M1590.46 618.317C1591.33 616.909 1593.38 616.909 1594.24 618.317L1602.46 631.729C1603.37 633.199 1602.3 635.084 1600.58 635.084H1584.13C1582.4 635.084 1581.34 633.199 1582.24 631.729L1590.46 618.317V618.317Z" stroke="#D0D0D0" stroke-width="2"/>
<path d="M1895.46 617.443C1901.57 617.443 1906.53 612.506 1906.53 606.417C1906.53 600.328 1901.57 595.391 1895.46 595.391C1889.35 595.391 1884.4 600.328 1884.4 606.417C1884.4 612.506 1889.35 617.443 1895.46 617.443Z" stroke="#D0D0D0" stroke-width="2"/>
<path d="M1710.72 664.854L1693.02 682.496M1710.72 682.496L1693.02 664.854L1710.72 682.496Z" stroke="#D0D0D0" stroke-width="2" stroke-linecap="round"/>
<path d="M1689.7 432.208H1674.21C1672.99 432.208 1672 433.195 1672 434.413V449.849C1672 451.067 1672.99 452.055 1674.21 452.055H1689.7C1690.92 452.055 1691.91 451.067 1691.91 449.849V434.413C1691.91 433.195 1690.92 432.208 1689.7 432.208Z" stroke="#D0D0D0" stroke-width="2"/>
<path d="M1669.94 887.222C1668.7 886.131 1669.05 884.118 1670.59 883.515L1685.27 877.773C1686.88 877.144 1688.56 878.512 1688.26 880.208L1685.41 896.353C1685.11 898.049 1683.06 898.762 1681.76 897.622L1669.94 887.222V887.222Z" stroke="#D0D0D0" stroke-width="2"/>
<path d="M1722.04 587.697C1723.1 581.7 1719.08 575.982 1713.06 574.924C1707.05 573.867 1701.31 577.871 1700.25 583.868C1699.19 589.865 1703.2 595.584 1709.22 596.641C1715.24 597.699 1720.98 593.694 1722.04 587.697Z" stroke="#D0D0D0" stroke-width="2"/>
<path d="M1736.8 777.265L1751.16 797.702M1754.23 780.329L1733.73 794.639L1754.23 780.329Z" stroke="#D0D0D0" stroke-width="2" stroke-linecap="round"/>
<path d="M1503.28 757.498L1500.59 772.699C1500.38 773.899 1501.18 775.043 1502.39 775.254L1517.64 777.935C1518.84 778.146 1519.99 777.345 1520.2 776.146L1522.89 760.944C1523.1 759.745 1522.3 758.601 1521.1 758.389L1505.84 755.709C1504.64 755.497 1503.49 756.298 1503.28 757.498Z" stroke="#D0D0D0" stroke-width="2"/>
<path d="M1071.46 1212.49C1070.22 1211.39 1070.58 1209.38 1072.12 1208.78L1086.8 1203.04C1088.41 1202.41 1090.09 1203.78 1089.79 1205.47L1086.93 1221.62C1086.63 1223.31 1084.58 1224.02 1083.29 1222.89L1071.46 1212.49V1212.49Z" stroke="#D0D0D0" stroke-width="2"/>
<path d="M1123.56 912.96C1124.62 906.964 1120.6 901.245 1114.59 900.188C1108.57 899.13 1102.83 903.134 1101.77 909.131C1100.71 915.128 1104.73 920.847 1110.75 921.904C1116.76 922.962 1122.5 918.957 1123.56 912.96Z" stroke="#D0D0D0" stroke-width="2"/>
<path d="M1138.33 1102.53L1152.68 1122.96M1155.76 1105.59L1135.25 1119.9L1155.76 1105.59Z" stroke="#D0D0D0" stroke-width="2" stroke-linecap="round"/>
<path d="M904.806 1082.76L902.117 1097.96C901.905 1099.16 902.708 1100.31 903.912 1100.52L919.164 1103.2C920.367 1103.41 921.514 1102.61 921.727 1101.41L924.416 1086.21C924.628 1085.01 923.825 1083.86 922.621 1083.65L907.369 1080.97C906.166 1080.76 905.018 1081.56 904.806 1082.76Z" stroke="#D0D0D0" stroke-width="2"/>
<path d="M676.535 436.262C675.294 435.171 675.65 433.158 677.191 432.555L691.871 426.813C693.48 426.183 695.159 427.552 694.858 429.248L692.002 445.392C691.702 447.089 689.655 447.801 688.36 446.662L676.535 436.262V436.262Z" stroke="#D0D0D0" stroke-width="2"/>
<path d="M728.634 136.737C729.695 130.74 725.677 125.022 719.66 123.964C713.644 122.907 707.906 126.911 706.845 132.908C705.784 138.905 709.802 144.624 715.818 145.681C721.835 146.738 727.573 142.734 728.634 136.737Z" stroke="#D0D0D0" stroke-width="2"/>
<path d="M743.399 326.305L757.756 346.742M760.83 329.369L740.325 343.679L760.83 329.369Z" stroke="#D0D0D0" stroke-width="2" stroke-linecap="round"/>
<path d="M509.878 306.537L507.189 321.739C506.977 322.938 507.78 324.082 508.984 324.294L524.236 326.974C525.439 327.186 526.587 326.385 526.799 325.185L529.488 309.984C529.7 308.784 528.897 307.641 527.693 307.429L512.441 304.749C511.238 304.537 510.09 305.338 509.878 306.537Z" stroke="#D0D0D0" stroke-width="2"/>
<path d="M915.461 960.91C913.806 960.912 912.734 959.169 913.488 957.7L920.665 943.705C921.451 942.171 923.619 942.087 924.521 943.555L933.115 957.533C934.018 959.001 932.959 960.887 931.231 960.89L915.461 960.91V960.91Z" stroke="#D0D0D0" stroke-width="2"/>
<path d="M755.353 702.171C752.16 696.979 745.349 695.349 740.14 698.531C734.931 701.713 733.296 708.501 736.488 713.693C739.68 718.885 746.491 720.515 751.7 717.333C756.91 714.151 758.545 707.363 755.353 702.171Z" stroke="#D0D0D0" stroke-width="2"/>
<path d="M892.439 834.397L916.779 840.222M907.53 825.18L901.687 849.439L907.53 825.18Z" stroke="#D0D0D0" stroke-width="2" stroke-linecap="round"/>
<path d="M704.401 973.817L712.493 986.979C713.131 988.017 714.493 988.343 715.535 987.707L728.74 979.641C729.782 979.005 730.109 977.647 729.471 976.609L721.379 963.447C720.74 962.409 719.378 962.083 718.336 962.719L705.131 970.785C704.089 971.421 703.762 972.779 704.401 973.817Z" stroke="#D0D0D0" stroke-width="2"/>
<path d="M136.579 871.564C137.441 870.156 139.492 870.156 140.355 871.564L148.578 884.976C149.48 886.445 148.419 888.331 146.691 888.331H130.243C128.515 888.331 127.455 886.445 128.356 884.976L136.579 871.564V871.564Z" stroke="#D0D0D0" stroke-width="2"/>
<path d="M441.577 870.69C447.686 870.69 452.639 865.753 452.639 859.664C452.639 853.574 447.686 848.638 441.577 848.638C435.467 848.638 430.514 853.574 430.514 859.664C430.514 865.753 435.467 870.69 441.577 870.69Z" stroke="#D0D0D0" stroke-width="2"/>
<path d="M256.835 918.101L239.135 935.742M256.835 935.742L239.135 918.101L256.835 935.742Z" stroke="#D0D0D0" stroke-width="2" stroke-linecap="round"/>
<path d="M235.816 685.455H220.328C219.107 685.455 218.116 686.442 218.116 687.66V703.096C218.116 704.314 219.107 705.301 220.328 705.301H235.816C237.038 705.301 238.028 704.314 238.028 703.096V687.66C238.028 686.442 237.038 685.455 235.816 685.455Z" stroke="#D0D0D0" stroke-width="2"/>
<path d="M447.013 576.714C447.767 578.183 446.696 579.926 445.04 579.923L429.27 579.904C427.542 579.902 426.483 578.015 427.386 576.547L435.98 562.569C436.883 561.101 439.05 561.185 439.836 562.718L447.013 576.714V576.714Z" stroke="#D0D0D0" stroke-width="2"/>
<path d="M288.4 836.366C285.208 841.558 286.843 848.346 292.053 851.528C297.262 854.71 304.073 853.08 307.265 847.888C310.457 842.696 308.822 835.908 303.613 832.726C298.404 829.544 291.593 831.174 288.4 836.366Z" stroke="#D0D0D0" stroke-width="2"/>
<path d="M344.369 654.595L338.526 630.336M329.278 645.377L353.617 639.553L329.278 645.377Z" stroke="#D0D0D0" stroke-width="2" stroke-linecap="round"/>
<path d="M554.372 758.29L562.464 745.129C563.102 744.09 562.775 742.733 561.733 742.096L548.528 734.031C547.486 733.394 546.124 733.72 545.486 734.759L537.394 747.92C536.755 748.959 537.082 750.316 538.124 750.953L551.329 759.018C552.371 759.655 553.733 759.329 554.372 758.29Z" stroke="#D0D0D0" stroke-width="2"/>
<path d="M1364.46 569.683C1363.22 568.591 1363.58 566.578 1365.12 565.976L1379.8 560.233C1381.41 559.604 1383.09 560.972 1382.79 562.669L1379.93 578.813C1379.63 580.509 1377.58 581.222 1376.29 580.083L1364.46 569.683V569.683Z" stroke="#D0D0D0" stroke-width="2"/>
<path d="M1416.56 270.158C1417.62 264.161 1413.6 258.442 1407.59 257.385C1401.57 256.327 1395.83 260.331 1394.77 266.328C1393.71 272.325 1397.73 278.044 1403.75 279.101C1409.76 280.159 1415.5 276.154 1416.56 270.158Z" stroke="#D0D0D0" stroke-width="2"/>
<path d="M1431.33 459.726L1445.68 480.162M1448.76 462.789L1428.25 477.099L1448.76 462.789Z" stroke="#D0D0D0" stroke-width="2" stroke-linecap="round"/>
<path d="M1197.81 439.958L1195.12 455.16C1194.9 456.359 1195.71 457.503 1196.91 457.714L1212.16 460.395C1213.37 460.606 1214.51 459.805 1214.73 458.606L1217.41 443.404C1217.63 442.205 1216.82 441.061 1215.62 440.85L1200.37 438.169C1199.17 437.958 1198.02 438.758 1197.81 439.958Z" stroke="#D0D0D0" stroke-width="2"/>
<path d="M1306.88 954.446C1305.64 953.355 1306 951.342 1307.54 950.739L1322.22 944.997C1323.83 944.367 1325.5 945.736 1325.2 947.432L1322.35 963.576C1322.05 965.273 1320 965.985 1318.7 964.846L1306.88 954.446V954.446Z" stroke="#D0D0D0" stroke-width="2"/>
<path d="M1358.98 654.921C1360.04 648.924 1356.02 643.206 1350.01 642.148C1343.99 641.091 1338.25 645.095 1337.19 651.092C1336.13 657.089 1340.15 662.808 1346.16 663.865C1352.18 664.922 1357.92 660.918 1358.98 654.921Z" stroke="#D0D0D0" stroke-width="2"/>
<path d="M1373.74 844.489L1388.1 864.926M1391.17 847.552L1370.67 861.862L1391.17 847.552Z" stroke="#D0D0D0" stroke-width="2" stroke-linecap="round"/>
<path d="M1140.22 824.721L1137.53 839.923C1137.32 841.123 1138.13 842.266 1139.33 842.478L1154.58 845.158C1155.78 845.37 1156.93 844.569 1157.14 843.369L1159.83 828.168C1160.05 826.968 1159.24 825.825 1158.04 825.613L1142.79 822.933C1141.58 822.721 1140.44 823.522 1140.22 824.721Z" stroke="#D0D0D0" stroke-width="2"/>
<defs>
<filter id="filter0_i_105_12" x="-0.00643921" y="0" width="1915.49" height="1231.74" filterUnits="userSpaceOnUse" color-interpolation-filters="sRGB">
<feFlood flood-opacity="0" result="BackgroundImageFix"/>
<feBlend mode="normal" in="SourceGraphic" in2="BackgroundImageFix" result="shape"/>
<feColorMatrix in="SourceAlpha" type="matrix" values="0 0 0 0 0 0 0 0 0 0 0 0 0 0 0 0 0 0 127 0" result="hardAlpha"/>
<feOffset/>
<feGaussianBlur stdDeviation="12"/>
<feComposite in2="hardAlpha" operator="arithmetic" k2="-1" k3="1"/>
<feColorMatrix type="matrix" values="0 0 0 0 0 0 0 0 0 0 0 0 0 0 0 0 0 0 0.15 0"/>
<feBlend mode="normal" in2="shape" result="effect1_innerShadow_105_12"/>
</filter>
<linearGradient id="paint0_linear_105_12" x1="-0.00638428" y1="3.53218e-05" x2="2030.06" y2="998.886" gradientUnits="userSpaceOnUse">
<stop stop-color="white"/>
<stop offset="1" stop-color="#D7E1EC"/>
</linearGradient>
</defs>
</svg>
